# xmcd CD database file
#
# Track frame offsets:
#	150
#	14955
#	29445
#	44517
#	58382
#	73420
#	88135
#	101032
#	116052
#	129372
#	147162
#	158702
#	174555
#	190195
#	203575
#	212280
#	225515
#	241535
#
# Disc length: 3374 seconds
#
# Revision: 0
# Processed by: cddbd v1.5.1PL2 Copyright (c) Steve Scherf et al.
# Submitted via: CDex 1.51
#
DISCID=030d2c12
DTITLE=Various Artist - Woody and Jazz - Music from his movies
DYEAR=2005
DGENRE=Jazz
TTITLE0=Duke Ellington - In a Melltone (Melinda and Melinda)
TTITLE1=Billie Holiday - Easy to Love (Anything else)
TTITLE2=Benny Goodman - Stompin' at the Savoy (Small Time Crooks)
TTITLE3=Sidney Bechet - Viper Mad (Sweet and Lowdown)
TTITLE4=Djargo Reinhardt - Liebestraum no. 3 (Sweet and Lowdown)
TTITLE5=Erroll Garner - Lullaby of Birdland (Celebrity)
TTITLE6=Billie Holiday - Did I Remember (Celebrity)
TTITLE7=Djargo Reinhardt - Out of Nowhere (Deconstructing Harry)
TTITLE8=Erroll Garner - Penthouse Serenade (Mighty Aphrodite)
TTITLE9=Red Nichols - Poor Butterfly (Bullets Over Broadway)
TTITLE10=Bob Haggart - Big Noise from Winnetka (Manhattan Murder Mystery)
TTITLE11=Artie Shaw - Moonglow (Alice)
TTITLE12=Benny Goodman - Goodbye (Radio Days)
TTITLE13=Tommy Dorsey - Opus 1 (Radio Days)
TTITLE14=Harry James - The Flight of the Bumble Bee (Radio Days)
TTITLE15=Harry James - I've Heard That Song Before (Hannah and Her Sisters)
TTITLE16=Louis Armstrong - Stardust (Stardust Memories)
TTITLE17=Django Reinhardt - I'll See You In My Dreams (Stardust Memories)
EXTD=YEAR: 2005
EXTT0=
EXTT1=
EXTT2=
EXTT3=
EXTT4=
EXTT5=
EXTT6=
EXTT7=
EXTT8=
EXTT9=
EXTT10=
EXTT11=
EXTT12=
EXTT13=
EXTT14=
EXTT15=
EXTT16=
EXTT17=
PLAYORDER=
